<svg width="54" height="54" viewBox="0 0 54 54" fill="none" xmlns="http://www.w3.org/2000/svg">
<circle cx="27.2024" cy="26.6823" r="26.6823" fill="#E53170"/>
<path d="M28.3142 17.2323C28.3142 16.79 28.1385 16.3659 27.8257 16.0531C27.513 15.7404 27.0888 15.5647 26.6465 15.5647C26.2042 15.5647 25.7801 15.7404 25.4673 16.0531C25.1546 16.3659 24.9789 16.79 24.9789 17.2323V24.4588H17.7524C17.3101 24.4588 16.886 24.6345 16.5732 24.9472C16.2605 25.2599 16.0848 25.6841 16.0848 26.1264C16.0848 26.5687 16.2605 26.9929 16.5732 27.3056C16.886 27.6184 17.3101 27.7941 17.7524 27.7941H24.9789V35.0205C24.9789 35.4628 25.1546 35.887 25.4673 36.1997C25.7801 36.5124 26.2042 36.6881 26.6465 36.6881C27.0888 36.6881 27.513 36.5124 27.8257 36.1997C28.1385 35.887 28.3142 35.4628 28.3142 35.0205V27.7941H35.5406C35.9829 27.7941 36.4071 27.6184 36.7198 27.3056C37.0326 26.9929 37.2083 26.5687 37.2083 26.1264C37.2083 25.6841 37.0326 25.2599 36.7198 24.9472C36.4071 24.6345 35.9829 24.4588 35.5406 24.4588H28.3142V17.2323Z" fill="white"/>
</svg>
