<svg width="288" height="182" viewBox="0 0 288 182" fill="none" xmlns="http://www.w3.org/2000/svg">
<g clip-path="url(#clip0_35_2)">
<path d="M148.196 181.069C143.643 181.835 139.035 182.089 134.439 181.828C123.356 181.189 112.456 177.506 103.14 170.581C99.0104 167.511 95.0706 163.739 92.9327 158.671C90.0312 151.79 91.0459 143.078 95.1894 137.085C96.7008 134.923 98.5598 133.111 100.667 131.746C100.979 131.545 101.298 131.351 101.62 131.165C105.131 129.148 109.074 128.323 112.982 128.788C119.626 129.618 125.758 134.254 129.301 140.733C132.457 146.509 133.557 153.325 134.205 160.156C134.327 161.443 134.432 162.734 134.534 164.018C133.969 167.736 133.081 171.38 131.884 174.896C131.823 175.068 131.773 175.244 131.734 175.424C132.413 177.106 133.059 178.804 133.672 180.518C134.248 180.875 134.893 181.062 135.549 181.061H148.169L148.196 181.069Z" fill="#F2F2F2"/>
<path d="M133.411 181.398C133.327 181.441 133.237 181.464 133.145 181.466C133.053 181.469 132.962 181.45 132.877 181.412C132.792 181.374 132.714 181.316 132.648 181.244C132.583 181.171 132.53 181.083 132.494 180.987C132.44 180.84 132.389 180.692 132.335 180.545C131.846 179.188 131.334 177.844 130.798 176.513C123.933 159.336 113.694 144.199 100.877 132.277C100.803 132.218 100.745 132.138 100.708 132.045C100.671 131.951 100.657 131.848 100.667 131.746C100.685 131.629 100.727 131.519 100.788 131.423C100.849 131.327 100.929 131.248 101.02 131.192C101.112 131.136 101.214 131.105 101.317 131.1C101.421 131.095 101.525 131.117 101.62 131.165C101.671 131.191 101.719 131.225 101.763 131.265C107.247 136.368 112.277 142.075 116.782 148.305C121.288 154.528 125.256 161.235 128.629 168.333C129.549 170.271 130.422 172.237 131.249 174.23C131.412 174.625 131.575 175.024 131.734 175.424C132.413 177.106 133.059 178.804 133.672 180.518C133.682 180.545 133.692 180.576 133.703 180.603C133.734 180.677 133.751 180.757 133.753 180.838C133.755 180.92 133.742 181.001 133.714 181.076C133.686 181.151 133.645 181.219 133.593 181.274C133.54 181.33 133.478 181.372 133.411 181.398Z" fill="white"/>
<path d="M88.4023 130.265C95.7117 130.265 101.637 123.496 101.637 115.145C101.637 106.794 95.7117 100.025 88.4023 100.025C81.093 100.025 75.1676 106.794 75.1676 115.145C75.1676 123.496 81.093 130.265 88.4023 130.265Z" fill="#E53170"/>
<path d="M87.0905 120.913C86.7927 120.914 86.5028 120.804 86.2646 120.6L86.2498 120.587L83.1396 117.866C82.9954 117.74 82.8744 117.583 82.7835 117.404C82.6926 117.224 82.6335 117.026 82.6096 116.82C82.5858 116.615 82.5976 116.406 82.6444 116.205C82.6913 116.005 82.7722 115.817 82.8826 115.653C82.993 115.488 83.1307 115.35 83.2879 115.246C83.445 115.142 83.6185 115.075 83.7985 115.048C83.9784 115.021 84.1613 115.034 84.3366 115.088C84.512 115.141 84.6764 115.234 84.8204 115.36L86.835 117.125L91.5958 110.032C91.7062 109.867 91.8439 109.729 92.001 109.625C92.1581 109.522 92.3316 109.454 92.5115 109.427C92.6914 109.4 92.8742 109.414 93.0495 109.467C93.2248 109.521 93.3891 109.613 93.5331 109.74L93.5035 109.785L93.5339 109.74C93.8244 109.995 94.0144 110.372 94.0624 110.787C94.1103 111.201 94.0122 111.621 93.7896 111.954L88.1898 120.297C88.0603 120.489 87.8938 120.645 87.7031 120.752C87.5125 120.858 87.3028 120.914 87.0905 120.913V120.913Z" fill="white"/>
<path d="M287.596 182H0.404114C0.297153 182 0.194681 181.951 0.119157 181.864C0.0436338 181.778 0.0012207 181.661 0.0012207 181.538C0.0012207 181.416 0.0436338 181.299 0.119157 181.212C0.194681 181.126 0.297153 181.077 0.404114 181.077H287.596C287.703 181.077 287.805 181.126 287.881 181.212C287.956 181.299 287.999 181.416 287.999 181.538C287.999 181.661 287.956 181.778 287.881 181.864C287.805 181.951 287.703 182 287.596 182V182Z" fill="#3F3D56"/>
<path d="M56.1784 52.7049C61.6023 52.7049 65.9992 47.6816 65.9992 41.4851C65.9992 35.2885 61.6023 30.2652 56.1784 30.2652C50.7545 30.2652 46.3575 35.2885 46.3575 41.4851C46.3575 47.6816 50.7545 52.7049 56.1784 52.7049Z" fill="#2F2E41"/>
<path d="M48.5127 35.4357C50.0997 33.6226 50.4213 31.0504 49.2311 29.6906C48.0408 28.3308 45.7894 28.6982 44.2024 30.5113C42.6154 32.3244 42.2938 34.8966 43.484 36.2564C44.6743 37.6162 46.9257 37.2487 48.5127 35.4357Z" fill="#2F2E41"/>
<path d="M66.4143 31.8726C67.0755 30.1042 65.9384 27.854 63.8745 26.8468C61.8105 25.8395 59.6013 26.4566 58.9401 28.2251C58.2788 29.9936 59.416 32.2437 61.4799 33.251C63.5439 34.2582 65.7531 33.6411 66.4143 31.8726Z" fill="#2F2E41"/>
<path d="M83.5253 106.262C83.7734 105.723 83.9152 105.129 83.9405 104.52C83.9658 103.912 83.874 103.305 83.6717 102.742C83.4694 102.178 83.1615 101.673 82.7695 101.26C82.3776 100.847 81.9113 100.538 81.4034 100.354L67.213 66.0585L60.7219 71.2586L76.7117 103.334C76.497 104.33 76.6094 105.38 77.0275 106.287C77.4456 107.194 78.1404 107.895 78.9803 108.256C79.8202 108.616 80.7467 108.613 81.5844 108.245C82.4221 107.878 83.1127 107.172 83.5253 106.262V106.262Z" fill="#FFB8B8"/>
<path d="M70.4672 71.7801L62.9307 75.6302C62.7163 75.7398 62.4837 75.7952 62.2488 75.7928C62.0139 75.7904 61.7822 75.7302 61.5695 75.6163C61.3569 75.5023 61.1682 75.3374 61.0163 75.1327C60.8645 74.9279 60.753 74.6882 60.6896 74.4298L58.4671 65.3759C57.9828 64.1193 57.9544 62.6946 58.3881 61.4142C58.8218 60.1337 59.6823 59.1019 60.7808 58.5451C61.8794 57.9883 63.1264 57.9519 64.2484 58.4439C65.3704 58.9358 66.2759 59.916 66.7663 61.1695L71.1783 69.0715C71.3046 69.2978 71.3867 69.5525 71.419 69.8183C71.4513 70.0841 71.4331 70.3548 71.3656 70.6118C71.2982 70.8688 71.183 71.1063 71.0279 71.3079C70.8729 71.5095 70.6817 71.6705 70.4672 71.7801V71.7801Z" fill="#CCCCCC"/>
<path d="M35.6607 109.662C36.1798 109.524 36.6662 109.258 37.0856 108.882C37.505 108.507 37.8471 108.03 38.088 107.487C38.3289 106.944 38.4626 106.347 38.4797 105.739C38.4968 105.13 38.3969 104.525 38.187 103.965L51.6262 69.2772L43.9383 67.065L33.1455 101.858C32.3458 102.323 31.7233 103.107 31.3959 104.061C31.0684 105.016 31.0588 106.074 31.3689 107.036C31.6789 107.998 32.287 108.797 33.078 109.281C33.8691 109.765 34.788 109.9 35.6607 109.662H35.6607Z" fill="#FFB8B8"/>
<path d="M31.9972 172.537L35.9065 174.163L43.2572 157.71L37.4872 155.31L31.9972 172.537Z" fill="#FFB8B8"/>
<path d="M42.1242 181.446L29.8378 176.335L31.5662 170.912L39.1056 174.048C40.3646 174.572 41.3899 175.645 41.956 177.033C42.5221 178.42 42.5826 180.008 42.1242 181.446V181.446V181.446Z" fill="#2F2E41"/>
<path d="M41.2441 163.068C41.0043 163.068 40.7674 163.008 40.5505 162.89L36.0577 160.459C35.6894 160.262 35.3992 159.914 35.2441 159.484C35.0891 159.054 35.0805 158.574 35.2201 158.137L47.8995 118.023C48.0046 117.691 48.1899 117.399 48.434 117.183C48.6782 116.966 48.9711 116.833 49.2788 116.799C49.5865 116.765 49.8964 116.831 50.1725 116.99C50.4486 117.149 50.6796 117.394 50.8386 117.697L57.545 130.466C57.6942 130.751 57.7745 131.076 57.7776 131.407C57.7807 131.739 57.7065 132.066 57.5626 132.354L42.6694 162.129C42.5251 162.415 42.3174 162.653 42.0671 162.817C41.8169 162.982 41.533 163.069 41.2441 163.068V163.068Z" fill="#2F2E41"/>
<path d="M56.4899 53.6857C61.0931 53.6857 64.8247 49.4225 64.8247 44.1635C64.8247 38.9046 61.0931 34.6414 56.4899 34.6414C51.8867 34.6414 48.155 38.9046 48.155 44.1635C48.155 49.4225 51.8867 53.6857 56.4899 53.6857Z" fill="#FFB8B8"/>
<path d="M68.2813 87.4571L53.5236 82.8205L45.6745 64.8863C45.2974 64.0247 45.1194 63.0673 45.1573 62.105C45.1952 61.1427 45.4478 60.2075 45.8911 59.3881C46.3343 58.5687 46.9536 57.8923 47.69 57.4233C48.4265 56.9542 49.2556 56.708 50.0988 56.708H61.8402C63.0589 56.7071 64.2349 57.221 65.1421 58.1508C68.2918 61.3742 74.909 70.6674 68.3452 87.295L68.2813 87.4571Z" fill="#CCCCCC"/>
<path d="M49.8069 75.4809L42.3298 71.4824C42.117 71.3686 41.9283 71.2038 41.7763 70.9992C41.6244 70.7945 41.5128 70.5549 41.4492 70.2965C41.3856 70.0382 41.3715 69.7672 41.4079 69.5021C41.4442 69.237 41.5301 68.9839 41.6598 68.7602L46.2039 60.9199C46.7196 59.6798 47.6447 58.724 48.7764 58.2619C49.9081 57.7998 51.1539 57.8692 52.2409 58.4549C53.3278 59.0406 54.1671 60.0948 54.5747 61.3863C54.9824 62.6779 54.9252 64.1014 54.4156 65.3448L52.0658 74.325C51.9985 74.582 51.8834 74.8195 51.7285 75.0213C51.5736 75.223 51.3824 75.3842 51.1681 75.4939C50.9537 75.6036 50.7211 75.6592 50.4862 75.6569C50.2513 75.6547 50.0196 75.5947 49.8069 75.4809V75.4809Z" fill="#CCCCCC"/>
<path d="M58.8532 177.032H63.0133L64.9928 158.699L58.8522 158.699L58.8532 177.032Z" fill="#FFB8B8"/>
<path d="M71.0372 181.445L57.9617 181.446L57.9614 175.674L65.9851 175.674C67.3249 175.674 68.6099 176.282 69.5574 177.364C70.5048 178.447 71.0371 179.915 71.0372 181.445V181.445Z" fill="#2F2E41"/>
<path d="M60.424 170.046C60.0499 170.047 59.6871 169.9 59.3967 169.631C59.1063 169.361 58.9061 168.986 58.8298 168.567C57.6339 162.13 51.423 129.158 46.5754 112.174C41.6432 94.8941 50.043 87.0235 51.7769 85.6213C51.9616 85.4722 52.1083 85.2699 52.2021 85.0348L53.4618 81.8689C53.5924 81.5421 53.8025 81.265 54.0671 81.0707C54.3316 80.8764 54.6395 80.7731 54.954 80.7731H54.9642C64.4079 80.8375 67.5827 84.2385 68.5092 85.6979C68.6459 85.9152 68.7396 86.164 68.7838 86.4268C68.8279 86.6896 68.8215 86.9603 68.765 87.22L62.7898 115.384C62.7527 115.559 62.7444 115.74 62.7651 115.918L68.7099 167.054C68.7385 167.3 68.7239 167.55 68.6671 167.789C68.6103 168.029 68.5123 168.253 68.3789 168.448C68.2455 168.644 68.0794 168.807 67.8902 168.929C67.701 169.05 67.4925 169.127 67.2769 169.156L60.6159 170.034C60.5522 170.042 60.4881 170.046 60.424 170.046V170.046Z" fill="#2F2E41"/>
<path d="M47.7319 38.1741C49.6365 39.6738 51.8972 40.472 54.2103 40.4614C53.3852 41.1151 52.4458 41.5566 51.457 41.7556C54.5325 42.5093 57.7111 42.5297 60.7939 41.8155C61.4792 41.69 62.1403 41.4305 62.7485 41.0486C63.0515 40.8552 63.3156 40.5911 63.5235 40.2736C63.7313 39.956 63.8783 39.592 63.955 39.2052C64.1598 37.8682 63.2479 36.6535 62.3003 35.8349C60.8494 34.6007 59.1765 33.7503 57.4026 33.3454C55.6287 32.9404 53.7982 32.991 52.0435 33.4934C50.8978 33.8317 49.75 34.4034 49.0058 35.4546C48.2616 36.5058 48.0412 38.1264 48.7502 39.2088L47.7319 38.1741Z" fill="#2F2E41"/>
<path d="M200.728 79.4772C203.164 79.4772 205.14 77.2207 205.14 74.4372C205.14 71.6537 203.164 69.3972 200.728 69.3972C198.292 69.3972 196.316 71.6537 196.316 74.4372C196.316 77.2207 198.292 79.4772 200.728 79.4772Z" fill="#E53170"/>
<path d="M200.291 76.3599C200.191 76.3601 200.095 76.3234 200.015 76.2554L200.01 76.2512L198.974 75.3443C198.926 75.3023 198.885 75.2499 198.855 75.1901C198.824 75.1302 198.804 75.0641 198.796 74.9955C198.788 74.9269 198.792 74.8572 198.808 74.7903C198.823 74.7234 198.85 74.6607 198.887 74.6058C198.924 74.5508 198.97 74.5047 199.023 74.4701C199.075 74.4355 199.133 74.4131 199.193 74.4041C199.253 74.3951 199.314 74.3997 199.373 74.4177C199.431 74.4357 199.486 74.4667 199.534 74.5089L200.206 75.0972L201.792 72.7328C201.829 72.6779 201.875 72.6319 201.928 72.5973C201.98 72.5628 202.038 72.5403 202.098 72.5313C202.158 72.5222 202.219 72.5268 202.277 72.5446C202.335 72.5625 202.39 72.5933 202.438 72.6354L202.428 72.6507L202.439 72.6356C202.535 72.7206 202.599 72.846 202.615 72.9844C202.631 73.1227 202.598 73.2626 202.524 73.3734L200.657 76.1545C200.614 76.2186 200.558 76.2704 200.495 76.3061C200.431 76.3417 200.361 76.3601 200.291 76.3599V76.3599Z" fill="white"/>
<path d="M200.728 94.2096C203.164 94.2096 205.14 91.9531 205.14 89.1696C205.14 86.386 203.164 84.1295 200.728 84.1295C198.292 84.1295 196.316 86.386 196.316 89.1696C196.316 91.9531 198.292 94.2096 200.728 94.2096Z" fill="#E53170"/>
<path d="M200.291 91.0922C200.191 91.0924 200.095 91.0558 200.015 90.9878L200.01 90.9835L198.974 90.0767C198.926 90.0347 198.885 89.9823 198.855 89.9225C198.824 89.8626 198.804 89.7965 198.796 89.7279C198.788 89.6593 198.792 89.5895 198.808 89.5227C198.823 89.4558 198.85 89.3931 198.887 89.3381C198.924 89.2832 198.97 89.2371 199.023 89.2025C199.075 89.1679 199.133 89.1454 199.193 89.1364C199.253 89.1274 199.314 89.132 199.373 89.15C199.431 89.168 199.486 89.199 199.534 89.2413L200.206 89.8295L201.792 87.4651C201.829 87.4103 201.875 87.3643 201.928 87.3297C201.98 87.2951 202.038 87.2727 202.098 87.2636C202.158 87.2546 202.219 87.2591 202.277 87.277C202.335 87.2948 202.39 87.3257 202.438 87.3677L202.428 87.383L202.439 87.368C202.535 87.453 202.599 87.5784 202.615 87.7167C202.631 87.855 202.598 87.9949 202.524 88.1057L200.657 90.8869C200.614 90.9509 200.558 91.0028 200.495 91.0384C200.431 91.074 200.361 91.0924 200.291 91.0922V91.0922Z" fill="white"/>
<path d="M203.103 111.268C205.54 111.268 207.515 109.012 207.515 106.228C207.515 103.445 205.54 101.188 203.103 101.188C200.667 101.188 198.692 103.445 198.692 106.228C198.692 109.012 200.667 111.268 203.103 111.268Z" fill="#E53170"/>
<path d="M202.666 108.151C202.567 108.151 202.47 108.114 202.391 108.046L202.386 108.042L201.349 107.135C201.301 107.093 201.261 107.041 201.23 106.981C201.2 106.921 201.18 106.855 201.172 106.786C201.164 106.718 201.168 106.648 201.183 106.581C201.199 106.514 201.226 106.452 201.263 106.397C201.3 106.342 201.346 106.296 201.398 106.261C201.451 106.226 201.508 106.204 201.569 106.195C201.629 106.186 201.69 106.191 201.748 106.209C201.807 106.227 201.861 106.258 201.909 106.3L202.581 106.888L204.168 104.524C204.205 104.469 204.251 104.423 204.303 104.388C204.355 104.354 204.413 104.331 204.473 104.322C204.533 104.313 204.594 104.318 204.652 104.336C204.711 104.353 204.766 104.384 204.814 104.426L204.804 104.442L204.814 104.426C204.911 104.512 204.974 104.637 204.99 104.775C205.006 104.914 204.973 105.053 204.899 105.164L203.033 107.945C202.989 108.009 202.934 108.061 202.87 108.097C202.807 108.133 202.737 108.151 202.666 108.151V108.151Z" fill="white"/>
<path d="M245.643 148.308C245.598 148.308 245.569 148.307 245.559 148.306L240.082 148.307V147.384H245.579C245.706 147.389 248.302 147.473 250.695 144.157C254.26 139.214 257.188 126.978 250.889 96.7557C242.42 56.1174 249.484 20.2158 252.914 6.6665C253.083 5.99617 253.113 5.29011 253.002 4.60413C252.891 3.91815 252.642 3.27104 252.275 2.71392C251.907 2.1568 251.431 1.70495 250.885 1.39405C250.338 1.08316 249.736 0.92176 249.125 0.922588H167.329C166.708 0.923541 166.095 1.09199 165.54 1.41427C164.986 1.73656 164.506 2.20359 164.14 2.77746C162.687 5.06098 160.693 9.4478 159.445 17.3799L158.65 17.2169C159.925 9.11241 161.984 4.59652 163.487 2.23507C163.928 1.54358 164.506 0.980821 165.174 0.592472C165.842 0.204123 166.58 0.00113333 167.329 -1.27478e-05H249.125C249.861 -0.000821737 250.587 0.193863 251.245 0.568661C251.904 0.943459 252.477 1.4881 252.92 2.15956C253.363 2.83101 253.663 3.61088 253.796 4.43756C253.93 5.26424 253.893 6.11507 253.689 6.92283C250.277 20.4018 243.25 56.1172 251.675 96.5422C258.062 127.19 254.991 139.691 251.291 144.781C248.85 148.138 246.161 148.308 245.643 148.308Z" fill="#E6E6E6"/>
<path d="M230.905 165.146C230.86 165.146 230.831 165.144 230.821 165.143L225.344 165.144V164.222H230.841C230.969 164.226 233.564 164.311 235.957 160.994C239.522 156.051 242.45 143.815 236.151 113.593C227.682 72.9548 234.746 37.0531 238.176 23.5038C238.345 22.8335 238.375 22.1275 238.264 21.4415C238.153 20.7555 237.904 20.1084 237.537 19.5513C237.169 18.9942 236.693 18.5423 236.147 18.2314C235.6 17.9205 234.998 17.7591 234.387 17.7599H152.592C151.97 17.7609 151.357 17.9293 150.803 18.2516C150.248 18.5739 149.768 19.0409 149.402 19.6148C147.949 21.8983 145.955 26.2851 144.707 34.2173L143.912 34.0542C145.187 25.9498 147.246 21.4339 148.749 19.0724C149.19 18.3809 149.768 17.8182 150.436 17.4298C151.104 17.0415 151.842 16.8385 152.592 16.8373H234.387C235.123 16.8365 235.849 17.0312 236.507 17.406C237.166 17.7808 237.739 18.3254 238.182 18.9969C238.625 19.6684 238.925 20.4482 239.058 21.2749C239.192 22.1016 239.155 22.9524 238.952 23.7602C235.539 37.2392 228.512 72.9545 236.937 113.38C243.324 144.027 240.253 156.528 236.553 161.618C234.112 164.975 231.423 165.146 230.905 165.146Z" fill="#CCCCCC"/>
<path d="M222.199 130.219C213.773 89.7938 220.801 54.0755 224.214 40.5993C224.418 39.7915 224.454 38.9408 224.32 38.1143C224.186 37.2878 223.886 36.5081 223.444 35.8367C223.001 35.1652 222.428 34.6205 221.77 34.2454C221.111 33.8702 220.386 33.675 219.65 33.6751H137.853C137.104 33.6759 136.366 33.8786 135.698 34.2666C135.031 34.6546 134.453 35.217 134.011 35.9082C130.709 41.0955 123.858 58.2975 131.51 105.895C135.603 131.358 135.542 148.719 134.205 160.156C133.455 166.596 132.298 171.155 131.249 174.23L131.137 174.555C130.916 175.177 130.801 175.842 130.798 176.513C130.79 177.271 130.923 178.022 131.188 178.717C131.453 179.412 131.844 180.035 132.335 180.545C132.655 180.888 133.017 181.175 133.411 181.398C133.737 181.588 134.082 181.733 134.439 181.828C134.802 181.93 135.175 181.98 135.549 181.98H216.084C216.094 181.98 216.121 181.983 216.168 181.983C216.684 181.983 219.375 181.813 221.815 178.455C225.514 173.365 228.585 160.866 222.199 130.219ZM221.218 177.831C218.826 181.15 216.23 181.065 216.104 181.061H135.549C134.904 181.061 134.269 180.88 133.699 180.535C133.129 180.189 132.642 179.69 132.28 179.08C131.962 178.552 131.749 177.952 131.654 177.321C131.56 176.689 131.587 176.042 131.734 175.424C131.773 175.244 131.823 175.068 131.883 174.896C133.081 171.38 133.969 167.736 134.534 164.018C136.448 152.096 136.804 133.7 132.304 105.728C124.71 58.4836 131.425 41.5414 134.663 36.451C135.03 35.8779 135.51 35.4116 136.064 35.0897C136.618 34.7678 137.231 34.5993 137.853 34.5978H219.65C220.26 34.5973 220.862 34.7589 221.409 35.0698C221.955 35.3806 222.43 35.8323 222.798 36.3891C223.165 36.9459 223.414 37.5926 223.525 38.2782C223.636 38.9638 223.606 39.6695 223.437 40.3395C220.007 53.8894 212.945 89.7938 221.415 130.432C227.713 160.653 224.785 172.888 221.218 177.831Z" fill="#3F3D56"/>
<path d="M183.339 77.694H141.197C140.34 77.694 139.518 77.3052 138.912 76.6131C138.307 75.921 137.966 74.9823 137.966 74.0036C137.966 73.0248 138.307 72.0862 138.912 71.3941C139.518 70.702 140.34 70.3132 141.197 70.3132H183.339C184.196 70.3132 185.018 70.702 185.623 71.3941C186.229 72.0862 186.57 73.0248 186.57 74.0036C186.57 74.9823 186.229 75.921 185.623 76.6131C185.018 77.3052 184.196 77.694 183.339 77.694V77.694Z" fill="#CCCCCC"/>
<path d="M183.339 93.5894H141.197C140.34 93.5894 139.518 93.2006 138.912 92.5085C138.307 91.8164 137.966 90.8778 137.966 89.899C137.966 88.9203 138.307 87.9816 138.912 87.2895C139.518 86.5975 140.34 86.2087 141.197 86.2087H183.339C184.196 86.2087 185.018 86.5975 185.623 87.2895C186.229 87.9816 186.57 88.9203 186.57 89.899C186.57 90.8778 186.229 91.8164 185.623 92.5085C185.018 93.2006 184.196 93.5894 183.339 93.5894V93.5894Z" fill="#CCCCCC"/>
<path d="M186.733 109.873H144.59C143.733 109.873 142.912 109.484 142.306 108.792C141.7 108.1 141.36 107.161 141.36 106.182C141.36 105.203 141.7 104.265 142.306 103.573C142.912 102.881 143.733 102.492 144.59 102.492H186.733C187.59 102.492 188.411 102.881 189.017 103.573C189.623 104.265 189.963 105.203 189.963 106.182C189.963 107.161 189.623 108.1 189.017 108.792C188.411 109.484 187.59 109.873 186.733 109.873V109.873Z" fill="#CCCCCC"/>
<path d="M189.108 126.931H146.965C146.109 126.931 145.287 126.542 144.681 125.85C144.076 125.158 143.735 124.219 143.735 123.241C143.735 122.262 144.076 121.323 144.681 120.631C145.287 119.939 146.109 119.55 146.965 119.55H189.108C189.965 119.55 190.787 119.939 191.392 120.631C191.998 121.323 192.339 122.262 192.339 123.241C192.339 124.219 191.998 125.158 191.392 125.85C190.787 126.542 189.965 126.931 189.108 126.931Z" fill="#CCCCCC"/>
<path d="M189.126 49.0396H158.843C158.418 49.0401 157.998 48.945 157.606 48.7598C157.213 48.5745 156.857 48.3028 156.557 47.9601C156.256 47.6173 156.018 47.2103 155.856 46.7624C155.693 46.3144 155.609 45.8342 155.609 45.3492C155.609 44.8643 155.693 44.3841 155.856 43.9361C156.018 43.4881 156.256 43.0811 156.557 42.7384C156.857 42.3957 157.213 42.1239 157.606 41.9387C157.998 41.7534 158.418 41.6583 158.843 41.6588H189.126C189.983 41.6588 190.805 42.0477 191.41 42.7397C192.016 43.4318 192.356 44.3705 192.356 45.3492C192.356 46.328 192.016 47.2666 191.41 47.9587C190.805 48.6508 189.983 49.0396 189.126 49.0396Z" fill="#E53170"/>
<path d="M205.818 128.281C208.255 128.281 210.23 126.024 210.23 123.241C210.23 120.457 208.255 118.201 205.818 118.201C203.382 118.201 201.407 120.457 201.407 123.241C201.407 126.024 203.382 128.281 205.818 128.281Z" fill="#CCCCCC"/>
<path d="M191.144 143.602H149.002C148.145 143.602 147.323 143.213 146.718 142.521C146.112 141.829 145.771 140.89 145.771 139.912C145.771 138.933 146.112 137.994 146.718 137.302C147.323 136.61 148.145 136.221 149.002 136.221H191.144C192.001 136.221 192.823 136.61 193.429 137.302C194.034 137.994 194.375 138.933 194.375 139.912C194.375 140.89 194.034 141.829 193.429 142.521C192.823 143.213 192.001 143.602 191.144 143.602Z" fill="#CCCCCC"/>
<path d="M207.854 144.952C210.291 144.952 212.266 142.695 212.266 139.912C212.266 137.128 210.291 134.872 207.854 134.872C205.418 134.872 203.443 137.128 203.443 139.912C203.443 142.695 205.418 144.952 207.854 144.952Z" fill="#CCCCCC"/>
</g>
<defs>
<clipPath id="clip0_35_2">
<rect width="288" height="182" fill="white"/>
</clipPath>
</defs>
</svg>
